<svg width="250" height="45" viewBox="0 0 250 45" fill="none" xmlns="http://www.w3.org/2000/svg">
<path d="M125.183 9.42979L122.148 12.3074L125.183 15.1851L128.219 12.3074L125.183 9.42979Z" stroke="white" stroke-width="2" stroke-miterlimit="10"/>
<path d="M125.183 26.4487L118.645 32.6472L125.183 38.8456L131.722 32.6472L125.183 26.4487Z" stroke="white" stroke-width="2" stroke-miterlimit="10"/>
<mask id="path-3-inside-1_23_1" fill="white">
<path d="M249.588 24.0076C247.424 24.0972 245.26 24.1379 243.101 24.203C240.937 24.2518 238.774 24.2925 236.615 24.321L230.128 24.3902L223.642 24.4146H223.29L223.036 24.1745L220.508 21.7775H221.723L214.605 28.5249L213.995 29.1028L213.386 28.5249L208.861 24.2396H210.089L207.964 26.2541V25.0902L210.025 27.0436H208.797L212.905 23.149V24.3169L208.655 20.288H209.891L205.783 24.1826L205.526 24.4268H205.161L159.047 24.4431L159.678 24.1948L153.02 30.5191L152.384 31.1214L151.749 30.5191L132.349 12.1446L122.652 2.95947L122.39 2.76006L122.351 2.73157L122.33 2.7275L122.291 2.71936C122.265 2.71122 122.244 2.70309 122.223 2.68681C122.167 2.66239 122.072 2.65018 121.999 2.62169C121.918 2.60948 121.836 2.60948 121.755 2.59727C121.42 2.59321 121.111 2.71936 120.866 2.94726L118.445 5.24661L113.598 9.8453V8.60813L135.578 29.4284H134.255L140.476 23.5234V24.7809L134.341 18.9694H135.672L132.036 22.4205V21.1548L143.884 32.3789H142.541L154.977 20.581V21.8629L145.911 13.276H147.271L144.271 16.1207L144.275 14.8306L150.259 20.5769L150.933 21.224L150.255 21.8711L138.136 33.3678L132.079 39.1182L129.048 41.9914L127.533 43.428L127.344 43.607L127.249 43.6966L127.224 43.721L127.125 43.8064L127.073 43.8471C126.919 43.957 126.855 44.0465 126.541 44.2093C126.412 44.2785 126.271 44.3518 126.142 44.4006L125.768 44.5105C125.519 44.5919 125.253 44.5837 124.996 44.6082C124.481 44.5837 123.953 44.4942 123.502 44.2378C123.261 44.132 123.068 43.9651 122.871 43.8105C122.755 43.721 122.725 43.6803 122.652 43.6152L122.463 43.4361L120.948 41.9995L117.917 39.1264L111.86 33.3759L99.7408 21.8792L99.0625 21.2322L99.7365 20.5851L105.721 14.8387L105.725 16.1288L102.724 13.2841H104.085L95.0186 21.8711V20.5891L107.455 32.387H106.111L117.96 21.163V22.4205L114.319 18.9654H115.65L109.516 24.7768V23.5193L115.736 29.4243H114.414L136.393 8.60406V9.84123L131.547 5.24254L129.125 2.94319C128.645 2.47112 127.829 2.47519 127.344 2.95947L117.646 12.1446L98.2554 30.5191L97.6201 31.1214L96.9847 30.5191L90.3222 24.1989L90.9533 24.4472L44.8393 24.4309H44.4744L44.2168 24.1867L40.1086 20.2921H41.3449L37.095 24.321V23.153L41.2032 27.0477H39.9755L42.036 25.0942V26.2582L39.9111 24.2437H41.1388L36.6142 28.5249L36.0046 29.1028L35.395 28.5249L28.286 21.7816H29.5009L26.9724 24.1786L26.7191 24.4187H26.3671L19.8763 24.3902L13.3897 24.321C11.2261 24.2925 9.06253 24.2518 6.90322 24.203C4.73532 24.1379 2.57601 24.0972 0.412403 24.0076C0.176295 23.9995 -0.00829797 23.8082 0.000287765 23.5844C0.0088735 23.3728 0.189174 23.2059 0.412403 23.1937C2.57601 23.1042 4.73961 23.0635 6.89893 22.9984C9.06253 22.9495 11.2261 22.9088 13.3854 22.8804L19.872 22.8112L26.3585 22.7868L25.7575 23.0269L28.286 20.6298L28.8956 20.052L29.5052 20.6298L36.6185 27.3692H35.395L39.9154 23.0798L40.5293 22.4978L41.1431 23.0798L43.2681 25.0942L43.882 25.6762L43.2681 26.2582L41.2075 28.2116L40.5936 28.7935L39.9798 28.2116L35.8715 24.3169L35.2533 23.735L35.8715 23.149L40.1214 19.12L40.7396 18.534L41.3578 19.12L45.466 23.0147L44.8479 22.7705L90.9619 22.7542H91.331L91.5929 23.0024L98.2597 29.3185H96.989L116.371 10.9319L126.06 1.73858C126.601 1.20953 127.425 0.855469 128.237 0.859539C128.439 0.867678 128.645 0.888026 128.846 0.912444C129.044 0.96535 129.237 1.01419 129.435 1.08337C129.641 1.17697 129.868 1.29499 130.036 1.40487L130.203 1.5351L130.285 1.60021L130.327 1.63277L130.349 1.64905L130.439 1.72637L132.865 4.02165L137.715 8.61627L138.368 9.23486L137.715 9.85344L115.753 30.69L115.092 31.3167L114.431 30.69L108.202 24.7931L107.541 24.1664L108.202 23.5356L114.332 17.7201L114.998 17.0893L115.663 17.7201L119.308 21.1711L119.973 21.8019L119.299 22.4205L107.459 33.6527L106.79 34.2916L106.116 33.6527L93.6707 21.867L92.9924 21.224L93.6707 20.581L102.729 11.9859L103.407 11.3389L104.089 11.9859L107.09 14.8306L107.768 15.4736L107.094 16.1207L101.114 21.8711L101.11 20.5769L113.238 32.0655L119.303 37.8078L122.334 40.681L123.85 42.1175L124.038 42.2966C124.094 42.3495 124.18 42.435 124.21 42.4472C124.292 42.496 124.352 42.5774 124.446 42.6059C124.609 42.7117 124.811 42.7239 125 42.7483C125.094 42.7239 125.197 42.7483 125.288 42.7076C125.335 42.6914 125.378 42.6832 125.429 42.671C125.464 42.6547 125.477 42.6425 125.507 42.6344C125.524 42.6669 125.713 42.5042 125.841 42.4105L125.893 42.3699C125.962 42.3088 125.811 42.439 125.833 42.4228L125.846 42.4105L125.871 42.3861L125.966 42.2966L126.155 42.1175L127.67 40.681L130.701 37.8078L136.767 32.0655L148.894 20.5769L148.89 21.8711L142.91 16.1207L142.236 15.4736L142.914 14.8306L145.915 11.9859L146.597 11.3389L147.276 11.9859L156.334 20.581L157.012 21.224L156.334 21.867L143.884 33.6527L143.21 34.2916L142.541 33.6527L130.701 22.4205L130.036 21.7856L130.701 21.1548L134.346 17.7038L135.011 17.073L135.676 17.7038L141.807 23.5193L142.468 24.1501L141.807 24.7768L135.578 30.6737L134.917 31.3004L134.255 30.6737L112.293 9.83716L111.641 9.21858L112.293 8.59999L117.144 4.00537L119.57 1.71009C120.132 1.16883 120.956 0.835121 121.767 0.8514C121.969 0.867678 122.175 0.879887 122.373 0.912444C122.57 0.969419 122.759 1.00605 122.965 1.09151C123.073 1.14034 123.176 1.19325 123.279 1.25022L123.429 1.33569L123.502 1.38045L123.545 1.41301L123.712 1.54324L123.794 1.60835L123.837 1.64091L123.927 1.71823L123.944 1.73451L133.633 10.9278L153.015 29.3145H151.745L158.411 22.9984L158.673 22.7501H159.042L205.156 22.7664L204.538 23.0106L208.647 19.1159L209.265 18.5299L209.883 19.1159L214.133 23.1449L214.751 23.7309L214.133 24.3129L210.025 28.2075L209.411 28.7895L208.797 28.2075L206.736 26.2541L206.122 25.6721L206.736 25.0902L208.861 23.0757L209.475 22.4937L210.089 23.0757L214.609 27.3651H213.386L220.499 20.6258L221.109 20.0479L221.718 20.6258L224.247 23.0228L223.642 22.7827L230.128 22.8071L236.615 22.8763C238.778 22.9048 240.942 22.9455 243.101 22.9943C245.265 23.0594 247.428 23.1001 249.588 23.1896C249.824 23.1978 250.008 23.3891 250 23.6129C249.991 23.8326 249.811 23.9995 249.588 24.0076Z"/>
</mask>
<path d="M249.588 24.0076C247.424 24.0972 245.26 24.1379 243.101 24.203C240.937 24.2518 238.774 24.2925 236.615 24.321L230.128 24.3902L223.642 24.4146H223.29L223.036 24.1745L220.508 21.7775H221.723L214.605 28.5249L213.995 29.1028L213.386 28.5249L208.861 24.2396H210.089L207.964 26.2541V25.0902L210.025 27.0436H208.797L212.905 23.149V24.3169L208.655 20.288H209.891L205.783 24.1826L205.526 24.4268H205.161L159.047 24.4431L159.678 24.1948L153.02 30.5191L152.384 31.1214L151.749 30.5191L132.349 12.1446L122.652 2.95947L122.39 2.76006L122.351 2.73157L122.33 2.7275L122.291 2.71936C122.265 2.71122 122.244 2.70309 122.223 2.68681C122.167 2.66239 122.072 2.65018 121.999 2.62169C121.918 2.60948 121.836 2.60948 121.755 2.59727C121.42 2.59321 121.111 2.71936 120.866 2.94726L118.445 5.24661L113.598 9.8453V8.60813L135.578 29.4284H134.255L140.476 23.5234V24.7809L134.341 18.9694H135.672L132.036 22.4205V21.1548L143.884 32.3789H142.541L154.977 20.581V21.8629L145.911 13.276H147.271L144.271 16.1207L144.275 14.8306L150.259 20.5769L150.933 21.224L150.255 21.8711L138.136 33.3678L132.079 39.1182L129.048 41.9914L127.533 43.428L127.344 43.607L127.249 43.6966L127.224 43.721L127.125 43.8064L127.073 43.8471C126.919 43.957 126.855 44.0465 126.541 44.2093C126.412 44.2785 126.271 44.3518 126.142 44.4006L125.768 44.5105C125.519 44.5919 125.253 44.5837 124.996 44.6082C124.481 44.5837 123.953 44.4942 123.502 44.2378C123.261 44.132 123.068 43.9651 122.871 43.8105C122.755 43.721 122.725 43.6803 122.652 43.6152L122.463 43.4361L120.948 41.9995L117.917 39.1264L111.86 33.3759L99.7408 21.8792L99.0625 21.2322L99.7365 20.5851L105.721 14.8387L105.725 16.1288L102.724 13.2841H104.085L95.0186 21.8711V20.5891L107.455 32.387H106.111L117.96 21.163V22.4205L114.319 18.9654H115.65L109.516 24.7768V23.5193L115.736 29.4243H114.414L136.393 8.60406V9.84123L131.547 5.24254L129.125 2.94319C128.645 2.47112 127.829 2.47519 127.344 2.95947L117.646 12.1446L98.2554 30.5191L97.6201 31.1214L96.9847 30.5191L90.3222 24.1989L90.9533 24.4472L44.8393 24.4309H44.4744L44.2168 24.1867L40.1086 20.2921H41.3449L37.095 24.321V23.153L41.2032 27.0477H39.9755L42.036 25.0942V26.2582L39.9111 24.2437H41.1388L36.6142 28.5249L36.0046 29.1028L35.395 28.5249L28.286 21.7816H29.5009L26.9724 24.1786L26.7191 24.4187H26.3671L19.8763 24.3902L13.3897 24.321C11.2261 24.2925 9.06253 24.2518 6.90322 24.203C4.73532 24.1379 2.57601 24.0972 0.412403 24.0076C0.176295 23.9995 -0.00829797 23.8082 0.000287765 23.5844C0.0088735 23.3728 0.189174 23.2059 0.412403 23.1937C2.57601 23.1042 4.73961 23.0635 6.89893 22.9984C9.06253 22.9495 11.2261 22.9088 13.3854 22.8804L19.872 22.8112L26.3585 22.7868L25.7575 23.0269L28.286 20.6298L28.8956 20.052L29.5052 20.6298L36.6185 27.3692H35.395L39.9154 23.0798L40.5293 22.4978L41.1431 23.0798L43.2681 25.0942L43.882 25.6762L43.2681 26.2582L41.2075 28.2116L40.5936 28.7935L39.9798 28.2116L35.8715 24.3169L35.2533 23.735L35.8715 23.149L40.1214 19.12L40.7396 18.534L41.3578 19.12L45.466 23.0147L44.8479 22.7705L90.9619 22.7542H91.331L91.5929 23.0024L98.2597 29.3185H96.989L116.371 10.9319L126.06 1.73858C126.601 1.20953 127.425 0.855469 128.237 0.859539C128.439 0.867678 128.645 0.888026 128.846 0.912444C129.044 0.96535 129.237 1.01419 129.435 1.08337C129.641 1.17697 129.868 1.29499 130.036 1.40487L130.203 1.5351L130.285 1.60021L130.327 1.63277L130.349 1.64905L130.439 1.72637L132.865 4.02165L137.715 8.61627L138.368 9.23486L137.715 9.85344L115.753 30.69L115.092 31.3167L114.431 30.69L108.202 24.7931L107.541 24.1664L108.202 23.5356L114.332 17.7201L114.998 17.0893L115.663 17.7201L119.308 21.1711L119.973 21.8019L119.299 22.4205L107.459 33.6527L106.79 34.2916L106.116 33.6527L93.6707 21.867L92.9924 21.224L93.6707 20.581L102.729 11.9859L103.407 11.3389L104.089 11.9859L107.09 14.8306L107.768 15.4736L107.094 16.1207L101.114 21.8711L101.11 20.5769L113.238 32.0655L119.303 37.8078L122.334 40.681L123.85 42.1175L124.038 42.2966C124.094 42.3495 124.18 42.435 124.21 42.4472C124.292 42.496 124.352 42.5774 124.446 42.6059C124.609 42.7117 124.811 42.7239 125 42.7483C125.094 42.7239 125.197 42.7483 125.288 42.7076C125.335 42.6914 125.378 42.6832 125.429 42.671C125.464 42.6547 125.477 42.6425 125.507 42.6344C125.524 42.6669 125.713 42.5042 125.841 42.4105L125.893 42.3699C125.962 42.3088 125.811 42.439 125.833 42.4228L125.846 42.4105L125.871 42.3861L125.966 42.2966L126.155 42.1175L127.67 40.681L130.701 37.8078L136.767 32.0655L148.894 20.5769L148.89 21.8711L142.91 16.1207L142.236 15.4736L142.914 14.8306L145.915 11.9859L146.597 11.3389L147.276 11.9859L156.334 20.581L157.012 21.224L156.334 21.867L143.884 33.6527L143.21 34.2916L142.541 33.6527L130.701 22.4205L130.036 21.7856L130.701 21.1548L134.346 17.7038L135.011 17.073L135.676 17.7038L141.807 23.5193L142.468 24.1501L141.807 24.7768L135.578 30.6737L134.917 31.3004L134.255 30.6737L112.293 9.83716L111.641 9.21858L112.293 8.59999L117.144 4.00537L119.57 1.71009C120.132 1.16883 120.956 0.835121 121.767 0.8514C121.969 0.867678 122.175 0.879887 122.373 0.912444C122.57 0.969419 122.759 1.00605 122.965 1.09151C123.073 1.14034 123.176 1.19325 123.279 1.25022L123.429 1.33569L123.502 1.38045L123.545 1.41301L123.712 1.54324L123.794 1.60835L123.837 1.64091L123.927 1.71823L123.944 1.73451L133.633 10.9278L153.015 29.3145H151.745L158.411 22.9984L158.673 22.7501H159.042L205.156 22.7664L204.538 23.0106L208.647 19.1159L209.265 18.5299L209.883 19.1159L214.133 23.1449L214.751 23.7309L214.133 24.3129L210.025 28.2075L209.411 28.7895L208.797 28.2075L206.736 26.2541L206.122 25.6721L206.736 25.0902L208.861 23.0757L209.475 22.4937L210.089 23.0757L214.609 27.3651H213.386L220.499 20.6258L221.109 20.0479L221.718 20.6258L224.247 23.0228L223.642 22.7827L230.128 22.8071L236.615 22.8763C238.778 22.9048 240.942 22.9455 243.101 22.9943C245.265 23.0594 247.428 23.1001 249.588 23.1896C249.824 23.1978 250.008 23.3891 250 23.6129C249.991 23.8326 249.811 23.9995 249.588 24.0076Z" fill="white" stroke="white" stroke-width="2" mask="url(#path-3-inside-1_23_1)"/>
</svg>
